# xmcd CD database file
#
# Track frame offsets:
#	150
#	878
#	14174
#	28019
#	44350
#	59633
#	70306
#	92715
#	111392
#	129322
#	151798
#	162574
#	180080
#	188320
#	214769
#	239746
#
# Disc length: 3588 seconds
#
# Revision: 0
# Processed by: cddbd v1.5.2PL0 Copyright (c) Steve Scherf et al.
# Submitted via: CDex 1.70beta2
#
DISCID=d10e0210
DTITLE=Scat - Wash Day Miracle!
DYEAR=2010
DGENRE=Jazz
TTITLE0=Scat (Pre-Wash)
TTITLE1=Groovin' Right
TTITLE2=Change Your Tune
TTITLE3=Wonder-Brite
TTITLE4=Borrowed Time
TTITLE5=Twisted
TTITLE6=Could This Be?
TTITLE7=To Self
TTITLE8=Skylark
TTITLE9=Soul Satisfaction
TTITLE10=Tradition of Straw Hats
TTITLE11=This Little Light of Mine
TTITLE12=Fly Me to the Moon
TTITLE13=Emma
TTITLE14=When I Fall in Love
TTITLE15=The Ending Song
EXTD=YEAR: 2010
EXTT0=
EXTT1=
EXTT2=
EXTT3=
EXTT4=
EXTT5=
EXTT6=
EXTT7=
EXTT8=
EXTT9=
EXTT10=
EXTT11=
EXTT12=
EXTT13=
EXTT14=
EXTT15=
PLAYORDER=
